STARTFONT 2.1
FONT -TakWolf-Ark Pixel 12px Prop latin-Regular-R-Normal-Sans Serif-12-120-75-75-P-117-ISO10646-1
SIZE 12 75 75
FONTBOUNDINGBOX 12 16 0 -3
STARTPROPERTIES 24
FOUNDRY "TakWolf"
FAMILY_NAME "Ark Pixel 12px Prop latin"
WEIGHT_NAME "Regular"
SLANT "R"
SETWIDTH_NAME "Normal"
ADD_STYLE_NAME "Sans Serif"
PIXEL_SIZE 12
POINT_SIZE 120
RESOLUTION_X 75
RESOLUTION_Y 75
SPACING "P"
AVERAGE_WIDTH 117
CHARSET_REGISTRY "ISO10646"
CHARSET_ENCODING "1"
DEFAULT_CHAR -1
FONT_ASCENT 13
FONT_DESCENT 3
X_HEIGHT 6
CAP_HEIGHT 9
UNDERLINE_POSITION -1
UNDERLINE_THICKNESS 1
FONT_VERSION "2026.08.11"
COPYRIGHT "Copyright (c) 2021, TakWolf (https://takwolf.com)"
LICENSE "This Font Software is licensed under the SIL Open Font License, Version 1.1"
ENDPROPERTIES
CHARS 221
STARTCHAR u0020
ENCODING 32
SWIDTH 500 0
DWIDTH 6 0
BBX 6 18 0 -4
BITMAP
00
00
00
00
00
00
00
00
00
00
00
00
00
00
00
00
00
00
ENDCHAR
STARTCHAR u0021
ENCODING 33
SWIDTH 334 0
DWIDTH 4 0
BBX 4 18 0 -4
BITMAP
00
00
00
00
00
40
40
40
40
40
40
40
00
40
00
00
00
00
ENDCHAR
STARTCHAR u0022
ENCODING 34
SWIDTH 500 0
DWIDTH 6 0
BBX 6 18 0 -4
BITMAP
00
00
00
00
00
50
50
50
00
00
00
00
00
00
00
00
00
00
ENDCHAR
STARTCHAR u0023
ENCODING 35
SWIDTH 584 0
DWIDTH 7 0
BBX 7 18 0 -4
BITMAP
00
00
00
00
00
48
48
FC
48
48
48
FC
48
48
00
00
00
00
ENDCHAR
STARTCHAR u0024
ENCODING 36
SWIDTH 500 0
DWIDTH 6 0
BBX 6 18 0 -4
BITMAP
00
00
00
00
20
70
A8
A0
A0
70
28
28
A8
70
20
00
00
00
ENDCHAR
STARTCHAR u0025
ENCODING 37
SWIDTH 667 0
DWIDTH 8 0
BBX 8 18 0 -4
BITMAP
00
00
00
00
00
44
A4
48
08
10
20
24
4A
44
00
00
00
00
ENDCHAR
STARTCHAR u0026
ENCODING 38
SWIDTH 584 0
DWIDTH 7 0
BBX 7 18 0 -4
BITMAP
00
00
00
00
00
30
48
48
30
64
94
88
88
74
00
00
00
00
ENDCHAR
STARTCHAR u0027
ENCODING 39
SWIDTH 334 0
DWIDTH 4 0
BBX 4 18 0 -4
BITMAP
00
00
00
00
00
40
40
40
00
00
00
00
00
00
00
00
00
00
ENDCHAR
STARTCHAR u0028
ENCODING 40
SWIDTH 500 0
DWIDTH 6 0
BBX 6 18 0 -4
BITMAP
00
00
00
00
10
20
20
40
40
40
40
40
20
20
10
00
00
00
ENDCHAR
STARTCHAR u0029
ENCODING 41
SWIDTH 500 0
DWIDTH 6 0
BBX 6 18 0 -4
BITMAP
00
00
00
00
40
20
20
10
10
10
10
10
20
20
40
00
00
00
ENDCHAR
STARTCHAR u002A
ENCODING 42
SWIDTH 500 0
DWIDTH 6 0
BBX 6 18 0 -4
BITMAP
00
00
00
00
00
00
00
00
20
A8
70
A8
20
00
00
00
00
00
ENDCHAR
STARTCHAR u002B
ENCODING 43
SWIDTH 500 0
DWIDTH 6 0
BBX 6 18 0 -4
BITMAP
00
00
00
00
00
00
00
00
20
20
F8
20
20
00
00
00
00
00
ENDCHAR
STARTCHAR u002C
ENCODING 44
SWIDTH 334 0
DWIDTH 4 0
BBX 4 18 0 -4
BITMAP
00
00
00
00
00
00
00
00
00
00
00
00
00
40
40
80
00
00
ENDCHAR
STARTCHAR u002D
ENCODING 45
SWIDTH 500 0
DWIDTH 6 0
BBX 6 18 0 -4
BITMAP
00
00
00
00
00
00
00
00
00
00
F8
00
00
00
00
00
00
00
ENDCHAR
STARTCHAR u002E
ENCODING 46
SWIDTH 334 0
DWIDTH 4 0
BBX 4 18 0 -4
BITMAP
00
00
00
00
00
00
00
00
00
00
00
00
00
40
00
00
00
00
ENDCHAR
STARTCHAR u002F
ENCODING 47
SWIDTH 500 0
DWIDTH 6 0
BBX 6 18 0 -4
BITMAP
00
00
00
00
08
08
10
10
20
20
20
40
40
80
80
00
00
00
ENDCHAR
STARTCHAR u0030
ENCODING 48
SWIDTH 500 0
DWIDTH 6 0
BBX 6 18 0 -4
BITMAP
00
00
00
00
00
70
88
88
98
A8
C8
88
88
70
00
00
00
00
ENDCHAR
STARTCHAR u0031
ENCODING 49
SWIDTH 500 0
DWIDTH 6 0
BBX 6 18 0 -4
BITMAP
00
00
00
00
00
20
60
20
20
20
20
20
20
70
00
00
00
00
ENDCHAR
STARTCHAR u0032
ENCODING 50
SWIDTH 500 0
DWIDTH 6 0
BBX 6 18 0 -4
BITMAP
00
00
00
00
00
70
88
08
08
10
20
40
80
F8
00
00
00
00
ENDCHAR
STARTCHAR u0033
ENCODING 51
SWIDTH 500 0
DWIDTH 6 0
BBX 6 18 0 -4
BITMAP
00
00
00
00
00
70
88
08
08
30
08
08
88
70
00
00
00
00
ENDCHAR
STARTCHAR u0034
ENCODING 52
SWIDTH 500 0
DWIDTH 6 0
BBX 6 18 0 -4
BITMAP
00
00
00
00
00
10
30
30
50
50
90
F8
10
10
00
00
00
00
ENDCHAR
STARTCHAR u0035
ENCODING 53
SWIDTH 500 0
DWIDTH 6 0
BBX 6 18 0 -4
BITMAP
00
00
00
00
00
F8
80
80
80
F0
08
08
88
70
00
00
00
00
ENDCHAR
STARTCHAR u0036
ENCODING 54
SWIDTH 500 0
DWIDTH 6 0
BBX 6 18 0 -4
BITMAP
00
00
00
00
00
70
88
80
80
F0
88
88
88
70
00
00
00
00
ENDCHAR
STARTCHAR u0037
ENCODING 55
SWIDTH 500 0
DWIDTH 6 0
BBX 6 18 0 -4
BITMAP
00
00
00
00
00
F8
08
08
10
10
20
20
20
20
00
00
00
00
ENDCHAR
STARTCHAR u0038
ENCODING 56
SWIDTH 500 0
DWIDTH 6 0
BBX 6 18 0 -4
BITMAP
00
00
00
00
00
70
88
88
88
70
88
88
88
70
00
00
00
00
ENDCHAR
STARTCHAR u0039
ENCODING 57
SWIDTH 500 0
DWIDTH 6 0
BBX 6 18 0 -4
BITMAP
00
00
00
00
00
70
88
88
88
78
08
08
88
70
00
00
00
00
ENDCHAR
STARTCHAR u003A
ENCODING 58
SWIDTH 334 0
DWIDTH 4 0
BBX 4 18 0 -4
BITMAP
00
00
00
00
00
00
00
00
40
00
00
00
00
40
00
00
00
00
ENDCHAR
STARTCHAR u003B
ENCODING 59
SWIDTH 334 0
DWIDTH 4 0
BBX 4 18 0 -4
BITMAP
00
00
00
00
00
00
00
00
40
00
00
00
00
40
40
80
00
00
ENDCHAR
STARTCHAR u003C
ENCODING 60
SWIDTH 417 0
DWIDTH 5 0
BBX 5 18 0 -4
BITMAP
00
00
00
00
00
00
00
10
20
40
80
40
20
10
00
00
00
00
ENDCHAR
STARTCHAR u003D
ENCODING 61
SWIDTH 500 0
DWIDTH 6 0
BBX 6 18 0 -4
BITMAP
00
00
00
00
00
00
00
00
00
F8
00
F8
00
00
00
00
00
00
ENDCHAR
STARTCHAR u003E
ENCODING 62
SWIDTH 417 0
DWIDTH 5 0
BBX 5 18 0 -4
BITMAP
00
00
00
00
00
00
00
80
40
20
10
20
40
80
00
00
00
00
ENDCHAR
STARTCHAR u003F
ENCODING 63
SWIDTH 500 0
DWIDTH 6 0
BBX 6 18 0 -4
BITMAP
00
00
00
00
00
70
88
08
08
10
20
20
00
20
00
00
00
00
ENDCHAR
STARTCHAR u0040
ENCODING 64
SWIDTH 667 0
DWIDTH 8 0
BBX 8 18 0 -4
BITMAP
00
00
00
00
00
38
44
9A
AA
AA
AA
AA
B6
40
3C
00
00
00
ENDCHAR
STARTCHAR u0041
ENCODING 65
SWIDTH 667 0
DWIDTH 8 0
BBX 8 18 0 -4
BITMAP
00
00
00
00
00
10
10
28
28
44
7C
44
82
82
00
00
00
00
ENDCHAR
STARTCHAR u0042
ENCODING 66
SWIDTH 584 0
DWIDTH 7 0
BBX 7 18 0 -4
BITMAP
00
00
00
00
00
F8
84
84
84
F8
84
84
84
F8
00
00
00
00
ENDCHAR
STARTCHAR u0043
ENCODING 67
SWIDTH 584 0
DWIDTH 7 0
BBX 7 18 0 -4
BITMAP
00
00
00
00
00
38
44
80
80
80
80
80
44
38
00
00
00
00
ENDCHAR
STARTCHAR u0044
ENCODING 68
SWIDTH 584 0
DWIDTH 7 0
BBX 7 18 0 -4
BITMAP
00
00
00
00
00
F0
88
84
84
84
84
84
88
F0
00
00
00
00
ENDCHAR
STARTCHAR u0045
ENCODING 69
SWIDTH 584 0
DWIDTH 7 0
BBX 7 18 0 -4
BITMAP
00
00
00
00
00
FC
80
80
80
F8
80
80
80
FC
00
00
00
00
ENDCHAR
STARTCHAR u0046
ENCODING 70
SWIDTH 584 0
DWIDTH 7 0
BBX 7 18 0 -4
BITMAP
00
00
00
00
00
FC
80
80
80
F8
80
80
80
80
00
00
00
00
ENDCHAR
STARTCHAR u0047
ENCODING 71
SWIDTH 584 0
DWIDTH 7 0
BBX 7 18 0 -4
BITMAP
00
00
00
00
00
38
44
80
80
80
8C
84
44
3C
00
00
00
00
ENDCHAR
STARTCHAR u0048
ENCODING 72
SWIDTH 584 0
DWIDTH 7 0
BBX 7 18 0 -4
BITMAP
00
00
00
00
00
84
84
84
84
FC
84
84
84
84
00
00
00
00
ENDCHAR
STARTCHAR u0049
ENCODING 73
SWIDTH 334 0
DWIDTH 4 0
BBX 4 18 0 -4
BITMAP
00
00
00
00
00
E0
40
40
40
40
40
40
40
E0
00
00
00
00
ENDCHAR
STARTCHAR u004A
ENCODING 74
SWIDTH 500 0
DWIDTH 6 0
BBX 6 18 0 -4
BITMAP
00
00
00
00
00
08
08
08
08
08
08
88
88
70
00
00
00
00
ENDCHAR
STARTCHAR u004B
ENCODING 75
SWIDTH 584 0
DWIDTH 7 0
BBX 7 18 0 -4
BITMAP
00
00
00
00
00
84
88
90
A0
C0
A0
90
88
84
00
00
00
00
ENDCHAR
STARTCHAR u004C
ENCODING 76
SWIDTH 500 0
DWIDTH 6 0
BBX 6 18 0 -4
BITMAP
00
00
00
00
00
80
80
80
80
80
80
80
80
F8
00
00
00
00
ENDCHAR
STARTCHAR u004D
ENCODING 77
SWIDTH 667 0
DWIDTH 8 0
BBX 8 18 0 -4
BITMAP
00
00
00
00
00
82
82
C6
C6
AA
AA
92
92
92
00
00
00
00
ENDCHAR
STARTCHAR u004E
ENCODING 78
SWIDTH 584 0
DWIDTH 7 0
BBX 7 18 0 -4
BITMAP
00
00
00
00
00
84
C4
A4
A4
94
94
8C
8C
84
00
00
00
00
ENDCHAR
STARTCHAR u004F
ENCODING 79
SWIDTH 667 0
DWIDTH 8 0
BBX 8 18 0 -4
BITMAP
00
00
00
00
00
38
44
82
82
82
82
82
44
38
00
00
00
00
ENDCHAR
STARTCHAR u0050
ENCODING 80
SWIDTH 584 0
DWIDTH 7 0
BBX 7 18 0 -4
BITMAP
00
00
00
00
00
F8
84
84
84
F8
80
80
80
80
00
00
00
00
ENDCHAR
STARTCHAR u0051
ENCODING 81
SWIDTH 667 0
DWIDTH 8 0
BBX 8 18 0 -4
BITMAP
00
00
00
00
00
38
44
82
82
82
82
8A
44
3A
00
00
00
00
ENDCHAR
STARTCHAR u0052
ENCODING 82
SWIDTH 584 0
DWIDTH 7 0
BBX 7 18 0 -4
BITMAP
00
00
00
00
00
F8
84
84
84
F8
90
88
88
84
00
00
00
00
ENDCHAR
STARTCHAR u0053
ENCODING 83
SWIDTH 584 0
DWIDTH 7 0
BBX 7 18 0 -4
BITMAP
00
00
00
00
00
78
84
80
40
30
08
04
84
78
00
00
00
00
ENDCHAR
STARTCHAR u0054
ENCODING 84
SWIDTH 667 0
DWIDTH 8 0
BBX 8 18 0 -4
BITMAP
00
00
00
00
00
FE
10
10
10
10
10
10
10
10
00
00
00
00
ENDCHAR
STARTCHAR u0055
ENCODING 85
SWIDTH 584 0
DWIDTH 7 0
BBX 7 18 0 -4
BITMAP
00
00
00
00
00
84
84
84
84
84
84
84
84
78
00
00
00
00
ENDCHAR
STARTCHAR u0056
ENCODING 86
SWIDTH 667 0
DWIDTH 8 0
BBX 8 18 0 -4
BITMAP
00
00
00
00
00
82
82
44
44
44
28
28
10
10
00
00
00
00
ENDCHAR
STARTCHAR u0057
ENCODING 87
SWIDTH 834 0
DWIDTH 10 0
BBX 10 18 0 -4
BITMAP
0000
0000
0000
0000
0000
8880
8880
8880
5500
5500
5500
2200
2200
2200
0000
0000
0000
0000
ENDCHAR
STARTCHAR u0058
ENCODING 88
SWIDTH 667 0
DWIDTH 8 0
BBX 8 18 0 -4
BITMAP
00
00
00
00
00
82
44
44
28
10
28
44
44
82
00
00
00
00
ENDCHAR
STARTCHAR u0059
ENCODING 89
SWIDTH 667 0
DWIDTH 8 0
BBX 8 18 0 -4
BITMAP
00
00
00
00
00
82
44
44
28
28
10
10
10
10
00
00
00
00
ENDCHAR
STARTCHAR u005A
ENCODING 90
SWIDTH 584 0
DWIDTH 7 0
BBX 7 18 0 -4
BITMAP
00
00
00
00
00
FC
04
08
10
20
20
40
80
FC
00
00
00
00
ENDCHAR
STARTCHAR u005B
ENCODING 91
SWIDTH 500 0
DWIDTH 6 0
BBX 6 18 0 -4
BITMAP
00
00
00
00
70
40
40
40
40
40
40
40
40
40
70
00
00
00
ENDCHAR
STARTCHAR u005C
ENCODING 92
SWIDTH 500 0
DWIDTH 6 0
BBX 6 18 0 -4
BITMAP
00
00
00
00
80
80
40
40
20
20
20
10
10
08
08
00
00
00
ENDCHAR
STARTCHAR u005D
ENCODING 93
SWIDTH 500 0
DWIDTH 6 0
BBX 6 18 0 -4
BITMAP
00
00
00
00
70
10
10
10
10
10
10
10
10
10
70
00
00
00
ENDCHAR
STARTCHAR u005E
ENCODING 94
SWIDTH 500 0
DWIDTH 6 0
BBX 6 18 0 -4
BITMAP
00
00
00
00
00
20
50
88
00
00
00
00
00
00
00
00
00
00
ENDCHAR
STARTCHAR u005F
ENCODING 95
SWIDTH 500 0
DWIDTH 6 0
BBX 6 18 0 -4
BITMAP
00
00
00
00
00
00
00
00
00
00
00
00
00
00
00
F8
00
00
ENDCHAR
STARTCHAR u0060
ENCODING 96
SWIDTH 417 0
DWIDTH 5 0
BBX 5 18 0 -4
BITMAP
00
00
00
00
00
40
20
00
00
00
00
00
00
00
00
00
00
00
ENDCHAR
STARTCHAR u0061
ENCODING 97
SWIDTH 500 0
DWIDTH 6 0
BBX 6 18 0 -4
BITMAP
00
00
00
00
00
00
00
00
70
08
78
88
88
78
00
00
00
00
ENDCHAR
STARTCHAR u0062
ENCODING 98
SWIDTH 500 0
DWIDTH 6 0
BBX 6 18 0 -4
BITMAP
00
00
00
00
00
80
80
80
F0
88
88
88
88
F0
00
00
00
00
ENDCHAR
STARTCHAR u0063
ENCODING 99
SWIDTH 500 0
DWIDTH 6 0
BBX 6 18 0 -4
BITMAP
00
00
00
00
00
00
00
00
70
88
80
80
88
70
00
00
00
00
ENDCHAR
STARTCHAR u0064
ENCODING 100
SWIDTH 500 0
DWIDTH 6 0
BBX 6 18 0 -4
BITMAP
00
00
00
00
00
08
08
08
78
88
88
88
88
78
00
00
00
00
ENDCHAR
STARTCHAR u0065
ENCODING 101
SWIDTH 500 0
DWIDTH 6 0
BBX 6 18 0 -4
BITMAP
00
00
00
00
00
00
00
00
70
88
F8
80
88
70
00
00
00
00
ENDCHAR
STARTCHAR u0066
ENCODING 102
SWIDTH 417 0
DWIDTH 5 0
BBX 5 18 0 -4
BITMAP
00
00
00
00
00
30
40
40
F0
40
40
40
40
40
00
00
00
00
ENDCHAR
STARTCHAR u0067
ENCODING 103
SWIDTH 500 0
DWIDTH 6 0
BBX 6 18 0 -4
BITMAP
00
00
00
00
00
00
00
00
78
88
88
88
88
78
08
70
00
00
ENDCHAR
STARTCHAR u0068
ENCODING 104
SWIDTH 500 0
DWIDTH 6 0
BBX 6 18 0 -4
BITMAP
00
00
00
00
00
80
80
80
B0
C8
88
88
88
88
00
00
00
00
ENDCHAR
STARTCHAR u0069
ENCODING 105
SWIDTH 334 0
DWIDTH 4 0
BBX 4 18 0 -4
BITMAP
00
00
00
00
00
40
00
00
C0
40
40
40
40
E0
00
00
00
00
ENDCHAR
STARTCHAR u006A
ENCODING 106
SWIDTH 334 0
DWIDTH 4 0
BBX 4 18 0 -4
BITMAP
00
00
00
00
00
20
00
00
E0
20
20
20
20
20
20
C0
00
00
ENDCHAR
STARTCHAR u006B
ENCODING 107
SWIDTH 500 0
DWIDTH 6 0
BBX 6 18 0 -4
BITMAP
00
00
00
00
00
80
80
80
88
B0
C0
A0
90
88
00
00
00
00
ENDCHAR
STARTCHAR u006C
ENCODING 108
SWIDTH 334 0
DWIDTH 4 0
BBX 4 18 0 -4
BITMAP
00
00
00
00
00
C0
40
40
40
40
40
40
40
60
00
00
00
00
ENDCHAR
STARTCHAR u006D
ENCODING 109
SWIDTH 667 0
DWIDTH 8 0
BBX 8 18 0 -4
BITMAP
00
00
00
00
00
00
00
00
EC
92
92
92
92
92
00
00
00
00
ENDCHAR
STARTCHAR u006E
ENCODING 110
SWIDTH 500 0
DWIDTH 6 0
BBX 6 18 0 -4
BITMAP
00
00
00
00
00
00
00
00
B0
C8
88
88
88
88
00
00
00
00
ENDCHAR
STARTCHAR u006F
ENCODING 111
SWIDTH 500 0
DWIDTH 6 0
BBX 6 18 0 -4
BITMAP
00
00
00
00
00
00
00
00
70
88
88
88
88
70
00
00
00
00
ENDCHAR
STARTCHAR u0070
ENCODING 112
SWIDTH 500 0
DWIDTH 6 0
BBX 6 18 0 -4
BITMAP
00
00
00
00
00
00
00
00
F0
88
88
88
88
F0
80
80
00
00
ENDCHAR
STARTCHAR u0071
ENCODING 113
SWIDTH 500 0
DWIDTH 6 0
BBX 6 18 0 -4
BITMAP
00
00
00
00
00
00
00
00
78
88
88
88
88
78
08
08
00
00
ENDCHAR
STARTCHAR u0072
ENCODING 114
SWIDTH 417 0
DWIDTH 5 0
BBX 5 18 0 -4
BITMAP
00
00
00
00
00
00
00
00
B0
C0
80
80
80
80
00
00
00
00
ENDCHAR
STARTCHAR u0073
ENCODING 115
SWIDTH 500 0
DWIDTH 6 0
BBX 6 18 0 -4
BITMAP
00
00
00
00
00
00
00
00
70
88
60
10
88
70
00
00
00
00
ENDCHAR
STARTCHAR u0074
ENCODING 116
SWIDTH 417 0
DWIDTH 5 0
BBX 5 18 0 -4
BITMAP
00
00
00
00
00
40
40
40
F0
40
40
40
40
30
00
00
00
00
ENDCHAR
STARTCHAR u0075
ENCODING 117
SWIDTH 500 0
DWIDTH 6 0
BBX 6 18 0 -4
BITMAP
00
00
00
00
00
00
00
00
88
88
88
88
98
68
00
00
00
00
ENDCHAR
STARTCHAR u0076
ENCODING 118
SWIDTH 500 0
DWIDTH 6 0
BBX 6 18 0 -4
BITMAP
00
00
00
00
00
00
00
00
88
88
50
50
20
20
00
00
00
00
ENDCHAR
STARTCHAR u0077
ENCODING 119
SWIDTH 667 0
DWIDTH 8 0
BBX 8 18 0 -4
BITMAP
00
00
00
00
00
00
00
00
92
92
AA
AA
44
44
00
00
00
00
ENDCHAR
STARTCHAR u0078
ENCODING 120
SWIDTH 500 0
DWIDTH 6 0
BBX 6 18 0 -4
BITMAP
00
00
00
00
00
00
00
00
88
50
20
20
50
88
00
00
00
00
ENDCHAR
STARTCHAR u0079
ENCODING 121
SWIDTH 500 0
DWIDTH 6 0
BBX 6 18 0 -4
BITMAP
00
00
00
00
00
00
00
00
88
88
88
50
50
20
20
C0
00
00
ENDCHAR
STARTCHAR u007A
ENCODING 122
SWIDTH 500 0
DWIDTH 6 0
BBX 6 18 0 -4
BITMAP
00
00
00
00
00
00
00
00
F8
10
20
40
80
F8
00
00
00
00
ENDCHAR
STARTCHAR u007B
ENCODING 123
SWIDTH 584 0
DWIDTH 7 0
BBX 7 18 0 -4
BITMAP
00
00
00
00
18
20
20
20
20
40
20
20
20
20
18
00
00
00
ENDCHAR
STARTCHAR u007C
ENCODING 124
SWIDTH 334 0
DWIDTH 4 0
BBX 4 18 0 -4
BITMAP
00
00
00
00
40
40
40
40
40
40
40
40
40
40
40
00
00
00
ENDCHAR
STARTCHAR u007D
ENCODING 125
SWIDTH 584 0
DWIDTH 7 0
BBX 7 18 0 -4
BITMAP
00
00
00
00
60
10
10
10
10
08
10
10
10
10
60
00
00
00
ENDCHAR
STARTCHAR u007E
ENCODING 126
SWIDTH 500 0
DWIDTH 6 0
BBX 6 18 0 -4
BITMAP
00
00
00
00
00
00
00
00
40
A8
10
00
00
00
00
00
00
00
ENDCHAR
STARTCHAR u00A1
ENCODING 161
SWIDTH 334 0
DWIDTH 4 0
BBX 4 18 0 -4
BITMAP
00
00
00
00
00
00
00
40
00
40
40
40
40
40
40
40
00
00
ENDCHAR
STARTCHAR u00A2
ENCODING 162
SWIDTH 500 0
DWIDTH 6 0
BBX 6 18 0 -4
BITMAP
00
00
00
00
00
00
00
20
70
A8
A0
A0
A8
70
20
00
00
00
ENDCHAR
STARTCHAR u00A3
ENCODING 163
SWIDTH 500 0
DWIDTH 6 0
BBX 6 18 0 -4
BITMAP
00
00
00
00
00
70
88
80
80
40
F0
40
80
F8
00
00
00
00
ENDCHAR
STARTCHAR u00A4
ENCODING 164
SWIDTH 667 0
DWIDTH 8 0
BBX 8 18 0 -4
BITMAP
00
00
00
00
00
00
BA
44
82
82
82
44
BA
00
00
00
00
00
ENDCHAR
STARTCHAR u00A5
ENCODING 165
SWIDTH 500 0
DWIDTH 6 0
BBX 6 18 0 -4
BITMAP
00
00
00
00
00
88
88
50
50
F8
20
F8
20
20
00
00
00
00
ENDCHAR
STARTCHAR u00A6
ENCODING 166
SWIDTH 334 0
DWIDTH 4 0
BBX 4 18 0 -4
BITMAP
00
00
00
00
40
40
40
40
40
00
40
40
40
40
40
00
00
00
ENDCHAR
STARTCHAR u00A7
ENCODING 167
SWIDTH 500 0
DWIDTH 6 0
BBX 6 18 0 -4
BITMAP
00
00
00
00
00
70
88
80
60
90
88
48
30
08
88
70
00
00
ENDCHAR
STARTCHAR u00A8
ENCODING 168
SWIDTH 500 0
DWIDTH 6 0
BBX 6 18 0 -4
BITMAP
00
00
00
00
00
50
00
00
00
00
00
00
00
00
00
00
00
00
ENDCHAR
STARTCHAR u00A9
ENCODING 169
SWIDTH 1000 0
DWIDTH 12 0
BBX 12 12 0 -1
BITMAP
0000
0000
1F00
2080
4E40
5140
5040
5140
4E40
2080
1F00
0000
ENDCHAR
STARTCHAR u00AA
ENCODING 170
SWIDTH 417 0
DWIDTH 5 0
BBX 5 18 0 -4
BITMAP
00
00
00
00
00
60
10
70
90
70
00
00
00
00
00
00
00
00
ENDCHAR
STARTCHAR u00AB
ENCODING 171
SWIDTH 584 0
DWIDTH 7 0
BBX 7 18 0 -4
BITMAP
00
00
00
00
00
00
00
00
24
48
90
48
24
00
00
00
00
00
ENDCHAR
STARTCHAR u00AC
ENCODING 172
SWIDTH 500 0
DWIDTH 6 0
BBX 6 18 0 -4
BITMAP
00
00
00
00
00
00
00
00
F8
08
08
00
00
00
00
00
00
00
ENDCHAR
STARTCHAR u00AE
ENCODING 174
SWIDTH 1000 0
DWIDTH 12 0
BBX 12 12 0 -1
BITMAP
0000
3C00
4200
B900
A500
B900
A500
4200
3C00
0000
0000
0000
ENDCHAR
STARTCHAR u00AF
ENCODING 175
SWIDTH 500 0
DWIDTH 6 0
BBX 6 18 0 -4
BITMAP
00
00
00
00
00
F8
00
00
00
00
00
00
00
00
00
00
00
00
ENDCHAR
STARTCHAR u00B0
ENCODING 176
SWIDTH 417 0
DWIDTH 5 0
BBX 5 18 0 -4
BITMAP
00
00
00
00
60
90
90
60
00
00
00
00
00
00
00
00
00
00
ENDCHAR
STARTCHAR u00B1
ENCODING 177
SWIDTH 500 0
DWIDTH 6 0
BBX 6 18 0 -4
BITMAP
00
00
00
00
00
00
00
00
20
20
F8
20
20
F8
00
00
00
00
ENDCHAR
STARTCHAR u00B2
ENCODING 178
SWIDTH 417 0
DWIDTH 5 0
BBX 5 18 0 -4
BITMAP
00
00
00
00
60
90
10
60
80
F0
00
00
00
00
00
00
00
00
ENDCHAR
STARTCHAR u00B3
ENCODING 179
SWIDTH 417 0
DWIDTH 5 0
BBX 5 18 0 -4
BITMAP
00
00
00
00
60
90
20
10
90
60
00
00
00
00
00
00
00
00
ENDCHAR
STARTCHAR u00B4
ENCODING 180
SWIDTH 417 0
DWIDTH 5 0
BBX 5 18 0 -4
BITMAP
00
00
00
00
00
20
40
00
00
00
00
00
00
00
00
00
00
00
ENDCHAR
STARTCHAR u00B5
ENCODING 181
SWIDTH 500 0
DWIDTH 6 0
BBX 6 18 0 -4
BITMAP
00
00
00
00
00
00
00
00
88
88
88
88
98
E8
80
80
00
00
ENDCHAR
STARTCHAR u00B6
ENCODING 182
SWIDTH 584 0
DWIDTH 7 0
BBX 7 18 0 -4
BITMAP
00
00
00
00
00
3C
74
F4
F4
F4
74
34
14
14
14
14
00
00
ENDCHAR
STARTCHAR u00B7
ENCODING 183
SWIDTH 334 0
DWIDTH 4 0
BBX 4 18 0 -4
BITMAP
00
00
00
00
00
00
00
00
00
40
00
00
00
00
00
00
00
00
ENDCHAR
STARTCHAR u00B8
ENCODING 184
SWIDTH 500 0
DWIDTH 6 0
BBX 6 18 0 -4
BITMAP
00
00
00
00
00
00
00
00
00
00
00
00
00
20
10
60
00
00
ENDCHAR
STARTCHAR u00B9
ENCODING 185
SWIDTH 417 0
DWIDTH 5 0
BBX 5 18 0 -4
BITMAP
00
00
00
00
20
60
20
20
20
70
00
00
00
00
00
00
00
00
ENDCHAR
STARTCHAR u00BA
ENCODING 186
SWIDTH 417 0
DWIDTH 5 0
BBX 5 18 0 -4
BITMAP
00
00
00
00
00
60
90
90
90
60
00
00
00
00
00
00
00
00
ENDCHAR
STARTCHAR u00BB
ENCODING 187
SWIDTH 584 0
DWIDTH 7 0
BBX 7 18 0 -4
BITMAP
00
00
00
00
00
00
00
00
90
48
24
48
90
00
00
00
00
00
ENDCHAR
STARTCHAR u00BC
ENCODING 188
SWIDTH 1000 0
DWIDTH 12 0
BBX 12 12 0 -1
BITMAP
0000
2020
6040
2080
2100
2200
7440
08C0
1140
2140
41E0
8040
ENDCHAR
STARTCHAR u00BD
ENCODING 189
SWIDTH 1000 0
DWIDTH 12 0
BBX 12 12 0 -1
BITMAP
0000
2020
6040
2080
2100
2200
74C0
0920
1020
20C0
4100
81E0
ENDCHAR
STARTCHAR u00BE
ENCODING 190
SWIDTH 1000 0
DWIDTH 12 0
BBX 12 12 0 -1
BITMAP
0000
6020
9040
2080
1100
9200
6440
08C0
1140
2140
41E0
8040
ENDCHAR
STARTCHAR u00BF
ENCODING 191
SWIDTH 500 0
DWIDTH 6 0
BBX 6 18 0 -4
BITMAP
00
00
00
00
00
00
00
20
00
20
20
40
80
80
88
70
00
00
ENDCHAR
STARTCHAR u00C0
ENCODING 192
SWIDTH 667 0
DWIDTH 8 0
BBX 8 18 0 -4
BITMAP
00
00
20
10
00
10
10
28
28
44
7C
44
82
82
00
00
00
00
ENDCHAR
STARTCHAR u00C1
ENCODING 193
SWIDTH 667 0
DWIDTH 8 0
BBX 8 18 0 -4
BITMAP
00
00
08
10
00
10
10
28
28
44
7C
44
82
82
00
00
00
00
ENDCHAR
STARTCHAR u00C2
ENCODING 194
SWIDTH 667 0
DWIDTH 8 0
BBX 8 18 0 -4
BITMAP
00
00
10
28
00
10
10
28
28
44
7C
44
82
82
00
00
00
00
ENDCHAR
STARTCHAR u00C3
ENCODING 195
SWIDTH 667 0
DWIDTH 8 0
BBX 8 18 0 -4
BITMAP
00
00
34
48
00
10
10
28
28
44
7C
44
82
82
00
00
00
00
ENDCHAR
STARTCHAR u00C4
ENCODING 196
SWIDTH 667 0
DWIDTH 8 0
BBX 8 18 0 -4
BITMAP
00
00
00
28
00
10
10
28
28
44
7C
44
82
82
00
00
00
00
ENDCHAR
STARTCHAR u00C5
ENCODING 197
SWIDTH 667 0
DWIDTH 8 0
BBX 8 18 0 -4
BITMAP
00
10
28
10
00
10
10
28
28
44
7C
44
82
82
00
00
00
00
ENDCHAR
STARTCHAR u00C6
ENCODING 198
SWIDTH 834 0
DWIDTH 10 0
BBX 10 18 0 -4
BITMAP
0000
0000
0000
0000
0000
1F80
1800
2800
2800
4F00
7800
4800
8800
8F80
0000
0000
0000
0000
ENDCHAR
STARTCHAR u00C7
ENCODING 199
SWIDTH 584 0
DWIDTH 7 0
BBX 7 18 0 -4
BITMAP
00
00
00
00
00
38
44
80
80
80
80
80
44
38
10
08
30
00
ENDCHAR
STARTCHAR u00C8
ENCODING 200
SWIDTH 584 0
DWIDTH 7 0
BBX 7 18 0 -4
BITMAP
00
00
20
10
00
FC
80
80
80
F8
80
80
80
FC
00
00
00
00
ENDCHAR
STARTCHAR u00C9
ENCODING 201
SWIDTH 584 0
DWIDTH 7 0
BBX 7 18 0 -4
BITMAP
00
00
10
20
00
FC
80
80
80
F8
80
80
80
FC
00
00
00
00
ENDCHAR
STARTCHAR u00CA
ENCODING 202
SWIDTH 584 0
DWIDTH 7 0
BBX 7 18 0 -4
BITMAP
00
00
10
28
00
FC
80
80
80
F8
80
80
80
FC
00
00
00
00
ENDCHAR
STARTCHAR u00CB
ENCODING 203
SWIDTH 584 0
DWIDTH 7 0
BBX 7 18 0 -4
BITMAP
00
00
00
48
00
FC
80
80
80
F8
80
80
80
FC
00
00
00
00
ENDCHAR
STARTCHAR u00CC
ENCODING 204
SWIDTH 334 0
DWIDTH 4 0
BBX 4 18 0 -4
BITMAP
00
00
80
40
00
E0
40
40
40
40
40
40
40
E0
00
00
00
00
ENDCHAR
STARTCHAR u00CD
ENCODING 205
SWIDTH 334 0
DWIDTH 4 0
BBX 4 18 0 -4
BITMAP
00
00
20
40
00
E0
40
40
40
40
40
40
40
E0
00
00
00
00
ENDCHAR
STARTCHAR u00CE
ENCODING 206
SWIDTH 334 0
DWIDTH 4 0
BBX 4 18 0 -4
BITMAP
00
00
40
A0
00
E0
40
40
40
40
40
40
40
E0
00
00
00
00
ENDCHAR
STARTCHAR u00CF
ENCODING 207
SWIDTH 334 0
DWIDTH 4 0
BBX 4 18 0 -4
BITMAP
00
00
00
A0
00
E0
40
40
40
40
40
40
40
E0
00
00
00
00
ENDCHAR
STARTCHAR u00D0
ENCODING 208
SWIDTH 667 0
DWIDTH 8 0
BBX 8 18 0 -4
BITMAP
00
00
00
00
00
78
44
42
42
F2
42
42
44
78
00
00
00
00
ENDCHAR
STARTCHAR u00D1
ENCODING 209
SWIDTH 584 0
DWIDTH 7 0
BBX 7 18 0 -4
BITMAP
00
00
34
48
00
84
C4
A4
A4
94
94
8C
8C
84
00
00
00
00
ENDCHAR
STARTCHAR u00D2
ENCODING 210
SWIDTH 667 0
DWIDTH 8 0
BBX 8 18 0 -4
BITMAP
00
00
20
10
00
38
44
82
82
82
82
82
44
38
00
00
00
00
ENDCHAR
STARTCHAR u00D3
ENCODING 211
SWIDTH 667 0
DWIDTH 8 0
BBX 8 18 0 -4
BITMAP
00
00
08
10
00
38
44
82
82
82
82
82
44
38
00
00
00
00
ENDCHAR
STARTCHAR u00D4
ENCODING 212
SWIDTH 667 0
DWIDTH 8 0
BBX 8 18 0 -4
BITMAP
00
00
10
28
00
38
44
82
82
82
82
82
44
38
00
00
00
00
ENDCHAR
STARTCHAR u00D5
ENCODING 213
SWIDTH 667 0
DWIDTH 8 0
BBX 8 18 0 -4
BITMAP
00
00
34
48
00
38
44
82
82
82
82
82
44
38
00
00
00
00
ENDCHAR
STARTCHAR u00D6
ENCODING 214
SWIDTH 667 0
DWIDTH 8 0
BBX 8 18 0 -4
BITMAP
00
00
00
28
00
38
44
82
82
82
82
82
44
38
00
00
00
00
ENDCHAR
STARTCHAR u00D7
ENCODING 215
SWIDTH 500 0
DWIDTH 6 0
BBX 6 18 0 -4
BITMAP
00
00
00
00
00
00
00
00
88
50
20
50
88
00
00
00
00
00
ENDCHAR
STARTCHAR u00D8
ENCODING 216
SWIDTH 667 0
DWIDTH 8 0
BBX 8 18 0 -4
BITMAP
00
00
00
00
02
3A
44
8A
8A
92
A2
A2
44
B8
80
00
00
00
ENDCHAR
STARTCHAR u00D9
ENCODING 217
SWIDTH 584 0
DWIDTH 7 0
BBX 7 18 0 -4
BITMAP
00
00
20
10
00
84
84
84
84
84
84
84
84
78
00
00
00
00
ENDCHAR
STARTCHAR u00DA
ENCODING 218
SWIDTH 584 0
DWIDTH 7 0
BBX 7 18 0 -4
BITMAP
00
00
10
20
00
84
84
84
84
84
84
84
84
78
00
00
00
00
ENDCHAR
STARTCHAR u00DB
ENCODING 219
SWIDTH 584 0
DWIDTH 7 0
BBX 7 18 0 -4
BITMAP
00
00
10
28
00
84
84
84
84
84
84
84
84
78
00
00
00
00
ENDCHAR
STARTCHAR u00DC
ENCODING 220
SWIDTH 584 0
DWIDTH 7 0
BBX 7 18 0 -4
BITMAP
00
00
00
48
00
84
84
84
84
84
84
84
84
78
00
00
00
00
ENDCHAR
STARTCHAR u00DD
ENCODING 221
SWIDTH 667 0
DWIDTH 8 0
BBX 8 18 0 -4
BITMAP
00
00
08
10
00
82
44
44
28
28
10
10
10
10
00
00
00
00
ENDCHAR
STARTCHAR u00DE
ENCODING 222
SWIDTH 584 0
DWIDTH 7 0
BBX 7 18 0 -4
BITMAP
00
00
00
00
00
80
80
F8
84
84
84
F8
80
80
00
00
00
00
ENDCHAR
STARTCHAR u00DF
ENCODING 223
SWIDTH 500 0
DWIDTH 6 0
BBX 6 18 0 -4
BITMAP
00
00
00
00
00
60
90
90
A0
A0
90
88
88
B0
00
00
00
00
ENDCHAR
STARTCHAR u00E0
ENCODING 224
SWIDTH 500 0
DWIDTH 6 0
BBX 6 18 0 -4
BITMAP
00
00
00
00
00
40
20
00
70
08
78
88
88
78
00
00
00
00
ENDCHAR
STARTCHAR u00E1
ENCODING 225
SWIDTH 500 0
DWIDTH 6 0
BBX 6 18 0 -4
BITMAP
00
00
00
00
00
10
20
00
70
08
78
88
88
78
00
00
00
00
ENDCHAR
STARTCHAR u00E2
ENCODING 226
SWIDTH 500 0
DWIDTH 6 0
BBX 6 18 0 -4
BITMAP
00
00
00
00
00
20
50
00
70
08
78
88
88
78
00
00
00
00
ENDCHAR
STARTCHAR u00E3
ENCODING 227
SWIDTH 500 0
DWIDTH 6 0
BBX 6 18 0 -4
BITMAP
00
00
00
00
00
68
90
00
70
08
78
88
88
78
00
00
00
00
ENDCHAR
STARTCHAR u00E4
ENCODING 228
SWIDTH 500 0
DWIDTH 6 0
BBX 6 18 0 -4
BITMAP
00
00
00
00
00
50
00
00
70
08
78
88
88
78
00
00
00
00
ENDCHAR
STARTCHAR u00E5
ENCODING 229
SWIDTH 500 0
DWIDTH 6 0
BBX 6 18 0 -4
BITMAP
00
00
00
00
20
50
20
00
70
08
78
88
88
78
00
00
00
00
ENDCHAR
STARTCHAR u00E6
ENCODING 230
SWIDTH 834 0
DWIDTH 10 0
BBX 10 18 0 -4
BITMAP
0000
0000
0000
0000
0000
0000
0000
0000
7700
0880
7F80
8800
8880
7700
0000
0000
0000
0000
ENDCHAR
STARTCHAR u00E7
ENCODING 231
SWIDTH 500 0
DWIDTH 6 0
BBX 6 18 0 -4
BITMAP
00
00
00
00
00
00
00
00
70
88
80
80
88
70
20
10
60
00
ENDCHAR
STARTCHAR u00E8
ENCODING 232
SWIDTH 500 0
DWIDTH 6 0
BBX 6 18 0 -4
BITMAP
00
00
00
00
00
40
20
00
70
88
F8
80
88
70
00
00
00
00
ENDCHAR
STARTCHAR u00E9
ENCODING 233
SWIDTH 500 0
DWIDTH 6 0
BBX 6 18 0 -4
BITMAP
00
00
00
00
00
10
20
00
70
88
F8
80
88
70
00
00
00
00
ENDCHAR
STARTCHAR u00EA
ENCODING 234
SWIDTH 500 0
DWIDTH 6 0
BBX 6 18 0 -4
BITMAP
00
00
00
00
00
20
50
00
70
88
F8
80
88
70
00
00
00
00
ENDCHAR
STARTCHAR u00EB
ENCODING 235
SWIDTH 500 0
DWIDTH 6 0
BBX 6 18 0 -4
BITMAP
00
00
00
00
00
50
00
00
70
88
F8
80
88
70
00
00
00
00
ENDCHAR
STARTCHAR u00EC
ENCODING 236
SWIDTH 334 0
DWIDTH 4 0
BBX 4 18 0 -4
BITMAP
00
00
00
00
00
80
40
00
C0
40
40
40
40
E0
00
00
00
00
ENDCHAR
STARTCHAR u00ED
ENCODING 237
SWIDTH 334 0
DWIDTH 4 0
BBX 4 18 0 -4
BITMAP
00
00
00
00
00
20
40
00
C0
40
40
40
40
E0
00
00
00
00
ENDCHAR
STARTCHAR u00EE
ENCODING 238
SWIDTH 334 0
DWIDTH 4 0
BBX 4 18 0 -4
BITMAP
00
00
00
00
00
40
A0
00
C0
40
40
40
40
E0
00
00
00
00
ENDCHAR
STARTCHAR u00EF
ENCODING 239
SWIDTH 334 0
DWIDTH 4 0
BBX 4 18 0 -4
BITMAP
00
00
00
00
00
A0
00
00
C0
40
40
40
40
E0
00
00
00
00
ENDCHAR
STARTCHAR u00F0
ENCODING 240
SWIDTH 500 0
DWIDTH 6 0
BBX 6 18 0 -4
BITMAP
00
00
00
00
40
38
E0
10
70
88
88
88
88
70
00
00
00
00
ENDCHAR
STARTCHAR u00F1
ENCODING 241
SWIDTH 500 0
DWIDTH 6 0
BBX 6 18 0 -4
BITMAP
00
00
00
00
00
68
90
00
B0
C8
88
88
88
88
00
00
00
00
ENDCHAR
STARTCHAR u00F2
ENCODING 242
SWIDTH 500 0
DWIDTH 6 0
BBX 6 18 0 -4
BITMAP
00
00
00
00
00
40
20
00
70
88
88
88
88
70
00
00
00
00
ENDCHAR
STARTCHAR u00F3
ENCODING 243
SWIDTH 500 0
DWIDTH 6 0
BBX 6 18 0 -4
BITMAP
00
00
00
00
00
10
20
00
70
88
88
88
88
70
00
00
00
00
ENDCHAR
STARTCHAR u00F4
ENCODING 244
SWIDTH 500 0
DWIDTH 6 0
BBX 6 18 0 -4
BITMAP
00
00
00
00
00
20
50
00
70
88
88
88
88
70
00
00
00
00
ENDCHAR
STARTCHAR u00F5
ENCODING 245
SWIDTH 500 0
DWIDTH 6 0
BBX 6 18 0 -4
BITMAP
00
00
00
00
00
68
90
00
70
88
88
88
88
70
00
00
00
00
ENDCHAR
STARTCHAR u00F6
ENCODING 246
SWIDTH 500 0
DWIDTH 6 0
BBX 6 18 0 -4
BITMAP
00
00
00
00
00
50
00
00
70
88
88
88
88
70
00
00
00
00
ENDCHAR
STARTCHAR u00F7
ENCODING 247
SWIDTH 500 0
DWIDTH 6 0
BBX 6 18 0 -4
BITMAP
00
00
00
00
00
00
00
00
20
00
F8
00
20
00
00
00
00
00
ENDCHAR
STARTCHAR u00F8
ENCODING 248
SWIDTH 500 0
DWIDTH 6 0
BBX 6 18 0 -4
BITMAP
00
00
00
00
00
00
00
08
70
98
A8
A8
C8
70
80
00
00
00
ENDCHAR
STARTCHAR u00F9
ENCODING 249
SWIDTH 500 0
DWIDTH 6 0
BBX 6 18 0 -4
BITMAP
00
00
00
00
00
40
20
00
88
88
88
88
98
68
00
00
00
00
ENDCHAR
STARTCHAR u00FA
ENCODING 250
SWIDTH 500 0
DWIDTH 6 0
BBX 6 18 0 -4
BITMAP
00
00
00
00
00
10
20
00
88
88
88
88
98
68
00
00
00
00
ENDCHAR
STARTCHAR u00FB
ENCODING 251
SWIDTH 500 0
DWIDTH 6 0
BBX 6 18 0 -4
BITMAP
00
00
00
00
00
20
50
00
88
88
88
88
98
68
00
00
00
00
ENDCHAR
STARTCHAR u00FC
ENCODING 252
SWIDTH 500 0
DWIDTH 6 0
BBX 6 18 0 -4
BITMAP
00
00
00
00
00
50
00
00
88
88
88
88
98
68
00
00
00
00
ENDCHAR
STARTCHAR u00FD
ENCODING 253
SWIDTH 500 0
DWIDTH 6 0
BBX 6 18 0 -4
BITMAP
00
00
00
00
00
10
20
00
88
88
88
50
50
20
20
C0
00
00
ENDCHAR
STARTCHAR u00FE
ENCODING 254
SWIDTH 500 0
DWIDTH 6 0
BBX 6 18 0 -4
BITMAP
00
00
00
00
00
80
80
80
F0
88
88
88
88
F0
80
80
00
00
ENDCHAR
STARTCHAR u00FF
ENCODING 255
SWIDTH 500 0
DWIDTH 6 0
BBX 6 18 0 -4
BITMAP
00
00
00
00
00
50
00
00
88
88
88
50
50
20
20
C0
00
00
ENDCHAR
STARTCHAR u2580
ENCODING 9600
SWIDTH 1000 0
DWIDTH 12 0
BBX 12 12 0 -1
BITMAP
FFF0
FFF0
FFF0
FFF0
FFF0
FFF0
0000
0000
0000
0000
0000
0000
ENDCHAR
STARTCHAR u2581
ENCODING 9601
SWIDTH 1000 0
DWIDTH 12 0
BBX 12 12 0 -1
BITMAP
0000
0000
0000
0000
0000
0000
0000
0000
0000
0000
FFF0
FFF0
ENDCHAR
STARTCHAR u2582
ENCODING 9602
SWIDTH 1000 0
DWIDTH 12 0
BBX 12 12 0 -1
BITMAP
0000
0000
0000
0000
0000
0000
0000
0000
0000
FFF0
FFF0
FFF0
ENDCHAR
STARTCHAR u2583
ENCODING 9603
SWIDTH 1000 0
DWIDTH 12 0
BBX 12 12 0 -1
BITMAP
0000
0000
0000
0000
0000
0000
0000
FFF0
FFF0
FFF0
FFF0
FFF0
ENDCHAR
STARTCHAR u2584
ENCODING 9604
SWIDTH 1000 0
DWIDTH 12 0
BBX 12 12 0 -1
BITMAP
0000
0000
0000
0000
0000
0000
FFF0
FFF0
FFF0
FFF0
FFF0
FFF0
ENDCHAR
STARTCHAR u2585
ENCODING 9605
SWIDTH 1000 0
DWIDTH 12 0
BBX 12 12 0 -1
BITMAP
0000
0000
0000
0000
0000
FFF0
FFF0
FFF0
FFF0
FFF0
FFF0
FFF0
ENDCHAR
STARTCHAR u2586
ENCODING 9606
SWIDTH 1000 0
DWIDTH 12 0
BBX 12 12 0 -1
BITMAP
0000
0000
0000
FFF0
FFF0
FFF0
FFF0
FFF0
FFF0
FFF0
FFF0
FFF0
ENDCHAR
STARTCHAR u2587
ENCODING 9607
SWIDTH 1000 0
DWIDTH 12 0
BBX 12 12 0 -1
BITMAP
0000
0000
FFF0
FFF0
FFF0
FFF0
FFF0
FFF0
FFF0
FFF0
FFF0
FFF0
ENDCHAR
STARTCHAR u2588
ENCODING 9608
SWIDTH 1000 0
DWIDTH 12 0
BBX 12 12 0 -1
BITMAP
FFF0
FFF0
FFF0
FFF0
FFF0
FFF0
FFF0
FFF0
FFF0
FFF0
FFF0
FFF0
ENDCHAR
STARTCHAR u2589
ENCODING 9609
SWIDTH 1000 0
DWIDTH 12 0
BBX 12 12 0 -1
BITMAP
FFC0
FFC0
FFC0
FFC0
FFC0
FFC0
FFC0
FFC0
FFC0
FFC0
FFC0
FFC0
ENDCHAR
STARTCHAR u258A
ENCODING 9610
SWIDTH 1000 0
DWIDTH 12 0
BBX 12 12 0 -1
BITMAP
FF80
FF80
FF80
FF80
FF80
FF80
FF80
FF80
FF80
FF80
FF80
FF80
ENDCHAR
STARTCHAR u258B
ENCODING 9611
SWIDTH 1000 0
DWIDTH 12 0
BBX 12 12 0 -1
BITMAP
FE00
FE00
FE00
FE00
FE00
FE00
FE00
FE00
FE00
FE00
FE00
FE00
ENDCHAR
STARTCHAR u258C
ENCODING 9612
SWIDTH 1000 0
DWIDTH 12 0
BBX 12 12 0 -1
BITMAP
FC00
FC00
FC00
FC00
FC00
FC00
FC00
FC00
FC00
FC00
FC00
FC00
ENDCHAR
STARTCHAR u258D
ENCODING 9613
SWIDTH 1000 0
DWIDTH 12 0
BBX 12 12 0 -1
BITMAP
F800
F800
F800
F800
F800
F800
F800
F800
F800
F800
F800
F800
ENDCHAR
STARTCHAR u258E
ENCODING 9614
SWIDTH 1000 0
DWIDTH 12 0
BBX 12 12 0 -1
BITMAP
E000
E000
E000
E000
E000
E000
E000
E000
E000
E000
E000
E000
ENDCHAR
STARTCHAR u258F
ENCODING 9615
SWIDTH 1000 0
DWIDTH 12 0
BBX 12 12 0 -1
BITMAP
C000
C000
C000
C000
C000
C000
C000
C000
C000
C000
C000
C000
ENDCHAR
STARTCHAR u2590
ENCODING 9616
SWIDTH 1000 0
DWIDTH 12 0
BBX 12 12 0 -1
BITMAP
03F0
03F0
03F0
03F0
03F0
03F0
03F0
03F0
03F0
03F0
03F0
03F0
ENDCHAR
STARTCHAR u2591
ENCODING 9617
SWIDTH 1000 0
DWIDTH 12 0
BBX 12 12 0 -1
BITMAP
AAA0
0000
AAA0
0000
AAA0
0000
AAA0
0000
AAA0
0000
AAA0
0000
ENDCHAR
STARTCHAR u2592
ENCODING 9618
SWIDTH 1000 0
DWIDTH 12 0
BBX 12 12 0 -1
BITMAP
AAA0
5550
AAA0
5550
AAA0
5550
AAA0
5550
AAA0
5550
AAA0
5550
ENDCHAR
STARTCHAR u2593
ENCODING 9619
SWIDTH 1000 0
DWIDTH 12 0
BBX 12 12 0 -1
BITMAP
FFF0
AAA0
FFF0
AAA0
FFF0
AAA0
FFF0
AAA0
FFF0
AAA0
FFF0
AAA0
ENDCHAR
STARTCHAR u2594
ENCODING 9620
SWIDTH 1000 0
DWIDTH 12 0
BBX 12 12 0 -1
BITMAP
FFF0
FFF0
0000
0000
0000
0000
0000
0000
0000
0000
0000
0000
ENDCHAR
STARTCHAR u2595
ENCODING 9621
SWIDTH 1000 0
DWIDTH 12 0
BBX 12 12 0 -1
BITMAP
0030
0030
0030
0030
0030
0030
0030
0030
0030
0030
0030
0030
ENDCHAR
STARTCHAR u2596
ENCODING 9622
SWIDTH 1000 0
DWIDTH 12 0
BBX 12 12 0 -1
BITMAP
0000
0000
0000
0000
0000
0000
FC00
FC00
FC00
FC00
FC00
FC00
ENDCHAR
STARTCHAR u2597
ENCODING 9623
SWIDTH 1000 0
DWIDTH 12 0
BBX 12 12 0 -1
BITMAP
0000
0000
0000
0000
0000
0000
03F0
03F0
03F0
03F0
03F0
03F0
ENDCHAR
STARTCHAR u2598
ENCODING 9624
SWIDTH 1000 0
DWIDTH 12 0
BBX 12 12 0 -1
BITMAP
FC00
FC00
FC00
FC00
FC00
FC00
0000
0000
0000
0000
0000
0000
ENDCHAR
STARTCHAR u2599
ENCODING 9625
SWIDTH 1000 0
DWIDTH 12 0
BBX 12 12 0 -1
BITMAP
FC00
FC00
FC00
FC00
FC00
FC00
FFF0
FFF0
FFF0
FFF0
FFF0
FFF0
ENDCHAR
STARTCHAR u259A
ENCODING 9626
SWIDTH 1000 0
DWIDTH 12 0
BBX 12 12 0 -1
BITMAP
FC00
FC00
FC00
FC00
FC00
FC00
03F0
03F0
03F0
03F0
03F0
03F0
ENDCHAR
STARTCHAR u259B
ENCODING 9627
SWIDTH 1000 0
DWIDTH 12 0
BBX 12 12 0 -1
BITMAP
FFF0
FFF0
FFF0
FFF0
FFF0
FFF0
FC00
FC00
FC00
FC00
FC00
FC00
ENDCHAR
STARTCHAR u259C
ENCODING 9628
SWIDTH 1000 0
DWIDTH 12 0
BBX 12 12 0 -1
BITMAP
FFF0
FFF0
FFF0
FFF0
FFF0
FFF0
03F0
03F0
03F0
03F0
03F0
03F0
ENDCHAR
STARTCHAR u259D
ENCODING 9629
SWIDTH 1000 0
DWIDTH 12 0
BBX 12 12 0 -1
BITMAP
03F0
03F0
03F0
03F0
03F0
03F0
0000
0000
0000
0000
0000
0000
ENDCHAR
STARTCHAR u259E
ENCODING 9630
SWIDTH 1000 0
DWIDTH 12 0
BBX 12 12 0 -1
BITMAP
03F0
03F0
03F0
03F0
03F0
03F0
FC00
FC00
FC00
FC00
FC00
FC00
ENDCHAR
STARTCHAR u259F
ENCODING 9631
SWIDTH 1000 0
DWIDTH 12 0
BBX 12 12 0 -1
BITMAP
03F0
03F0
03F0
03F0
03F0
03F0
FFF0
FFF0
FFF0
FFF0
FFF0
FFF0
ENDCHAR
ENDFONT
